<svg version="1.1" xmlns="http://www.w3.org/2000/svg" viewBox="0 0 1527.2485599539543 739.285717010498" width="1527.2485599539543" height="739.285717010498">
  <!-- svg-source:excalidraw -->
  
  <defs>
    <style class="style-fonts">
      @font-face {
        font-family: "Virgil";
        src: url("https://excalidraw.com/Virgil.woff2");
      }
      @font-face {
        font-family: "Cascadia";
        src: url("https://excalidraw.com/Cascadia.woff2");
      }
      @font-face {
        font-family: "Assistant";
        src: url("https://excalidraw.com/Assistant-Regular.woff2");
      }
    </style>
    
  </defs>
  <rect x="0" y="0" width="1527.2485599539543" height="739.285717010498" fill="#ffffff"></rect><g transform="translate(15.078399085103754 474.2215769160457) rotate(0 40.703468322753906 22.775372519499456)"><text x="0" y="0" font-family="Virgil, Segoe UI Emoji" font-size="36.44059603119916px" fill="#000000" text-anchor="start" style="white-space: pre;" direction="ltr" dominant-baseline="text-before-edge">User</text></g><g stroke-linecap="round"><g transform="translate(10 456.6336580536112) rotate(0 44.88517642702105 -39.968960577847724)" fill-rule="evenodd"><path d="M16.53 -62.48 C16.53 -62.48, 16.53 -62.48, 16.53 -62.48 M16.53 -62.48 C16.53 -62.48, 16.53 -62.48, 16.53 -62.48 M5.51 -37.61 C19.61 -53.82, 33.7 -70.04, 41.6 -79.12 M5.51 -37.61 C18.08 -52.07, 30.65 -66.53, 41.6 -79.12 M3.02 -22.55 C13.19 -34.24, 23.35 -45.93, 51.57 -78.4 M3.02 -22.55 C15.75 -37.2, 28.49 -51.84, 51.57 -78.4 M1.19 -8.24 C19.37 -29.17, 37.56 -50.09, 59.58 -75.41 M1.19 -8.24 C19.54 -29.36, 37.9 -50.47, 59.58 -75.41 M4.6 0.02 C27.6 -26.44, 50.6 -52.9, 65.61 -70.16 M4.6 0.02 C18.51 -15.98, 32.43 -31.99, 65.61 -70.16 M14.57 0.74 C30.9 -18.03, 47.22 -36.81, 71.65 -64.92 M14.57 0.74 C26 -12.4, 37.43 -25.55, 71.65 -64.92 M25.2 0.71 C45.51 -22.65, 65.81 -46.01, 76.38 -58.16 M25.2 0.71 C44.28 -21.23, 63.35 -43.18, 76.38 -58.16 M35.83 0.67 C50.51 -16.2, 65.18 -33.08, 81.1 -51.4 M35.83 0.67 C45.11 -9.99, 54.38 -20.66, 81.1 -51.4 M46.46 0.64 C54.72 -8.86, 62.98 -18.36, 84.52 -43.13 M46.46 0.64 C59.57 -14.44, 72.68 -29.52, 84.52 -43.13 M57.09 0.61 C67.72 -11.62, 78.34 -23.84, 88.58 -35.62 M57.09 0.61 C63.41 -6.66, 69.73 -13.94, 88.58 -35.62 M68.38 -0.18 C76.35 -9.36, 84.33 -18.53, 92 -27.35 M68.38 -0.18 C73.46 -6.03, 78.54 -11.87, 92 -27.35 M80.32 -1.73 C83.61 -5.51, 86.91 -9.3, 94.1 -17.58 M80.32 -1.73 C83.54 -5.43, 86.76 -9.13, 94.1 -17.58 M0 0 C0 0, 0 0, 0 0 M0 0 C0 0, 0 0, 0 0 M12.04 -0.13 C9.47 -2.37, 6.9 -4.61, 1.47 -9.32 M12.04 -0.13 C9.68 -2.18, 7.33 -4.23, 1.47 -9.32 M24.84 0.39 C19.48 -4.27, 14.12 -8.92, 2.2 -19.29 M24.84 0.39 C19.04 -4.65, 13.24 -9.69, 2.2 -19.29 M36.88 0.26 C24.69 -10.34, 12.49 -20.94, 3.67 -28.61 M36.88 0.26 C28.19 -7.3, 19.5 -14.85, 3.67 -28.61 M48.92 0.12 C36.99 -10.25, 25.06 -20.62, 5.14 -37.93 M48.92 0.12 C31.97 -14.61, 15.03 -29.34, 5.14 -37.93 M60.96 -0.01 C43.64 -15.06, 26.32 -30.12, 8.13 -45.93 M60.96 -0.01 C44.29 -14.5, 27.62 -28.99, 8.13 -45.93 M72.25 -0.8 C52.46 -18, 32.67 -35.2, 11.11 -53.94 M72.25 -0.8 C51.59 -18.75, 30.94 -36.71, 11.11 -53.94 M82.02 -2.9 C65.76 -17.04, 49.5 -31.17, 15.61 -60.63 M82.02 -2.9 C60.47 -21.63, 38.92 -40.37, 15.61 -60.63 M90.29 -6.31 C66.14 -27.3, 42 -48.29, 20.86 -66.67 M90.29 -6.31 C62.71 -30.29, 35.13 -54.27, 20.86 -66.67 M94.03 -13.66 C71.25 -33.46, 48.47 -53.26, 26.86 -72.05 M94.03 -13.66 C73.78 -31.26, 53.54 -48.86, 26.86 -72.05 M92.48 -25.61 C77.54 -38.6, 62.6 -51.58, 33.62 -76.78 M92.48 -25.61 C76.15 -39.8, 59.82 -54, 33.62 -76.78 M84.9 -42.8 C75.05 -51.36, 65.2 -59.93, 42.64 -79.54 M84.9 -42.8 C75.06 -51.35, 65.22 -59.91, 42.64 -79.54 M72.04 -64.58 C69.44 -66.84, 66.84 -69.1, 59.21 -75.73 M72.04 -64.58 C69.29 -66.97, 66.54 -69.36, 59.21 -75.73" stroke="#ced4da" stroke-width="1" fill="none"></path><path d="M0 0 C1.68 -8.83, 2.87 -39.65, 10.05 -52.97 C17.24 -66.29, 32.08 -78.97, 43.09 -79.94 C54.1 -80.9, 68.35 -71.16, 76.13 -58.75 C83.91 -46.34, 102.46 -15.29, 89.77 -5.5 C77.08 4.29, 14.96 -0.92, 0 0 M0 0 C1.68 -8.83, 2.87 -39.65, 10.05 -52.97 C17.24 -66.29, 32.08 -78.97, 43.09 -79.94 C54.1 -80.9, 68.35 -71.16, 76.13 -58.75 C83.91 -46.34, 102.46 -15.29, 89.77 -5.5 C77.08 4.29, 14.96 -0.92, 0 0" stroke="#000000" stroke-width="2" fill="none"></path></g></g><mask></mask><g stroke-linecap="round" transform="translate(32.69132380854559 335.12058149052154) rotate(0 22.981210330634795 20.108559039305533)"><path d="M5.31 7.26 C5.31 7.26, 5.31 7.26, 5.31 7.26 M5.31 7.26 C5.31 7.26, 5.31 7.26, 5.31 7.26 M0.85 24.59 C5.8 18.88, 10.76 13.18, 21.84 0.44 M0.85 24.59 C6.74 17.81, 12.62 11.04, 21.84 0.44 M4.92 32.1 C13.79 21.9, 22.65 11.69, 31.16 1.91 M4.92 32.1 C10.83 25.3, 16.74 18.5, 31.16 1.91 M10.95 37.35 C16.88 30.54, 22.8 23.72, 38.51 5.65 M10.95 37.35 C19.49 27.53, 28.03 17.71, 38.51 5.65 M18.96 40.33 C25.85 32.4, 32.74 24.48, 43.89 11.65 M18.96 40.33 C24.77 33.65, 30.58 26.96, 43.89 11.65 M30.25 39.54 C34.31 34.87, 38.37 30.2, 46.65 20.68 M30.25 39.54 C33.55 35.74, 36.85 31.94, 46.65 20.68 M7.84 35.19 C7.84 35.19, 7.84 35.19, 7.84 35.19 M7.84 35.19 C7.84 35.19, 7.84 35.19, 7.84 35.19 M25.16 39.65 C16.02 31.71, 6.89 23.76, 0.25 18 M25.16 39.65 C15.96 31.65, 6.77 23.66, 0.25 18 M34.94 37.55 C27.11 30.74, 19.29 23.94, 3.24 9.99 M34.94 37.55 C23.3 27.43, 11.67 17.32, 3.24 9.99 M40.94 32.16 C29.36 22.1, 17.78 12.04, 8.49 3.95 M40.94 32.16 C32.81 25.1, 24.69 18.03, 8.49 3.95 M45.43 25.47 C37.63 18.69, 29.82 11.9, 16.75 0.54 M45.43 25.47 C35.61 16.93, 25.78 8.39, 16.75 0.54 M45.4 14.84 C41.2 11.19, 36.99 7.53, 28.8 0.41 M45.4 14.84 C41.98 11.87, 38.56 8.9, 28.8 0.41" stroke="#ced4da" stroke-width="1" fill="none"></path><path d="M45.96 20.11 C45.96 21.27, 45.84 22.45, 45.61 23.6 C45.38 24.75, 45.03 25.89, 44.58 26.99 C44.12 28.08, 43.55 29.15, 42.88 30.16 C42.22 31.17, 41.44 32.14, 40.59 33.03 C39.73 33.93, 38.77 34.76, 37.75 35.51 C36.73 36.26, 35.62 36.94, 34.47 37.52 C33.32 38.11, 32.09 38.61, 30.84 39 C29.59 39.4, 28.28 39.71, 26.97 39.91 C25.66 40.11, 24.31 40.22, 22.98 40.22 C21.65 40.22, 20.3 40.11, 18.99 39.91 C17.68 39.71, 16.37 39.4, 15.12 39 C13.87 38.61, 12.64 38.11, 11.49 37.52 C10.34 36.94, 9.23 36.26, 8.21 35.51 C7.19 34.76, 6.23 33.93, 5.38 33.03 C4.52 32.14, 3.74 31.17, 3.08 30.16 C2.41 29.15, 1.84 28.08, 1.39 26.99 C0.93 25.89, 0.58 24.75, 0.35 23.6 C0.12 22.45, 0 21.27, 0 20.11 C0 18.94, 0.12 17.76, 0.35 16.62 C0.58 15.47, 0.93 14.32, 1.39 13.23 C1.84 12.14, 2.41 11.06, 3.08 10.05 C3.74 9.05, 4.52 8.07, 5.38 7.18 C6.23 6.29, 7.19 5.45, 8.21 4.7 C9.23 3.96, 10.34 3.28, 11.49 2.69 C12.64 2.11, 13.87 1.61, 15.12 1.21 C16.37 0.81, 17.68 0.51, 18.99 0.31 C20.3 0.1, 21.65 0, 22.98 0 C24.31 0, 25.66 0.1, 26.97 0.31 C28.28 0.51, 29.59 0.81, 30.84 1.21 C32.09 1.61, 33.32 2.11, 34.47 2.69 C35.62 3.28, 36.73 3.96, 37.75 4.7 C38.77 5.45, 39.73 6.29, 40.59 7.18 C41.44 8.07, 42.22 9.05, 42.88 10.05 C43.55 11.06, 44.12 12.14, 44.58 13.23 C45.03 14.32, 45.38 15.47, 45.61 16.62 C45.84 17.76, 45.9 19.53, 45.96 20.11 C46.02 20.69, 46.02 19.53, 45.96 20.11" stroke="#000000" stroke-width="2" fill="none"></path></g><g stroke-linecap="round"><g transform="translate(122.96267128207921 391.4287567138672) rotate(0 122.85709381103516 -1.9497011049948014)"><path d="M-0.83 0.7 C40.01 -0.27, 203.78 -4.17, 244.97 -4.87 M0.93 0.02 C42.17 -0.91, 206.48 -2.89, 247.29 -3.83" stroke="#1e1e1e" stroke-width="2" fill="none"></path></g><g transform="translate(122.96267128207921 391.4287567138672) rotate(0 122.85709381103516 -1.9497011049948014)"><path d="M223.94 5.11 C231.85 1.42, 235.89 0.98, 247.29 -3.83 M223.94 5.11 C232.44 1.03, 239.55 -0.26, 247.29 -3.83" stroke="#1e1e1e" stroke-width="2" fill="none"></path></g><g transform="translate(122.96267128207921 391.4287567138672) rotate(0 122.85709381103516 -1.9497011049948014)"><path d="M223.65 -11.99 C231.78 -10.69, 235.9 -6.14, 247.29 -3.83 M223.65 -11.99 C232.15 -10.37, 239.35 -5.95, 247.29 -3.83" stroke="#1e1e1e" stroke-width="2" fill="none"></path></g></g><mask></mask><g stroke-linecap="round" transform="translate(432.59826252140414 340.97802908732814) rotate(0 76.84877356029634 89.0746137590161)"><path d="M32 0 C58.55 1.12, 89.96 0.81, 121.7 0 M32 0 C52.2 0.11, 72.79 0.73, 121.7 0 M121.7 0 C144.78 -0.3, 154.13 8.76, 153.7 32 M121.7 0 C142.4 1.1, 155.69 12.39, 153.7 32 M153.7 32 C154.09 65.66, 156.02 95.48, 153.7 146.15 M153.7 32 C154.45 55.79, 154.85 80.45, 153.7 146.15 M153.7 146.15 C154.61 166.62, 141.63 178.45, 121.7 178.15 M153.7 146.15 C154.75 166.76, 145.2 178.81, 121.7 178.15 M121.7 178.15 C104.06 178.42, 81.66 179.24, 32 178.15 M121.7 178.15 C97.04 178.05, 71.53 177.68, 32 178.15 M32 178.15 C10.49 179.91, -1.95 166.99, 0 146.15 M32 178.15 C12.19 176.46, -0.93 168.2, 0 146.15 M0 146.15 C-2 116.99, -1.13 87.83, 0 32 M0 146.15 C-0.17 105.06, -1.6 64.71, 0 32 M0 32 C1.81 10.72, 12.07 0.28, 32 0 M0 32 C1.61 12.1, 12.14 -1.28, 32 0" stroke="#1e1e1e" stroke-width="2" fill="none"></path></g><g transform="translate(456.8511210138336 419.86436495035275) rotate(0 52.5959150678668 10.18827789599149)"><text x="0" y="0" font-family="Virgil, Segoe UI Emoji" font-size="16.30124463358639px" fill="#1e1e1e" text-anchor="start" style="white-space: pre;" direction="ltr" dominant-baseline="text-before-edge">Orchestrator</text></g><g transform="translate(237.9625949881339 355.0000762939453) rotate(0 18.61998748779297 12.5)"><text x="0" y="0" font-family="Virgil, Segoe UI Emoji" font-size="20px" fill="#1e1e1e" text-anchor="start" style="white-space: pre;" direction="ltr" dominant-baseline="text-before-edge">API</text></g><g stroke-linecap="round"><g transform="translate(486.30732213283136 44.74052452266352) rotate(0 -34.93848995988435 17.840479694148602)" fill-rule="evenodd"><path d="M-86.74 9.4 C-86.74 9.4, -86.74 9.4, -86.74 9.4 M-86.74 9.4 C-86.74 9.4, -86.74 9.4, -86.74 9.4 M-87.66 16.55 C-85.74 14.02, -84.74 12.73, -81.1 9.01 M-87.66 16.55 C-85.32 14.22, -83.48 11.67, -81.1 9.01 M-85.95 20.69 C-83.66 17.06, -81.97 14.59, -76.11 9.37 M-85.95 20.69 C-82.52 16.3, -78.55 11.75, -76.11 9.37 M-84.9 25.57 C-81.76 21.63, -74.73 14.74, -71.12 9.73 M-84.9 25.57 C-80.81 21.23, -77.68 17.46, -71.12 9.73 M-83.19 29.71 C-77.45 23.17, -71.09 17.68, -65.48 9.33 M-83.19 29.71 C-80.16 24.64, -74.94 20.72, -65.48 9.33 M-80.83 33.09 C-76.37 26.72, -69.08 20.15, -60.49 9.69 M-80.83 33.09 C-76.68 28.01, -73.57 24.24, -60.49 9.69 M-78.47 36.47 C-68.73 24.09, -62.29 16.28, -54.85 9.3 M-78.47 36.47 C-69.61 25.52, -60.38 14.89, -54.85 9.3 M-75.45 39.09 C-67.88 33.64, -65.2 24.35, -49.86 9.66 M-75.45 39.09 C-70.83 33.1, -64.07 26.74, -49.86 9.66 M-72.43 41.71 C-61.02 28.28, -52.67 16.75, -44.22 9.26 M-72.43 41.71 C-66.45 34.14, -59.44 26.45, -44.22 9.26 M-69.41 44.34 C-64.58 37.14, -58.53 29.44, -39.23 9.62 M-69.41 44.34 C-58.05 31.85, -47.63 19.24, -39.23 9.62 M-65.74 46.21 C-56.22 33.25, -46.93 23.61, -33.59 9.23 M-65.74 46.21 C-54.27 33.2, -43.6 21.43, -33.59 9.23 M-61.4 47.32 C-54.09 37.09, -44.42 26.87, -28.6 9.59 M-61.4 47.32 C-53.97 37.43, -45.59 28.61, -28.6 9.59 M-15.48 -5.51 C-12.83 -8.14, -10.73 -10.32, -9.58 -12.3 M-15.48 -5.51 C-13.27 -7.99, -10.58 -10.68, -9.58 -12.3 M-57.07 48.44 C-46.84 33.58, -34.2 22.42, -23.61 9.95 M-57.07 48.44 C-45.35 35.69, -33.18 22.6, -23.61 9.95 M-14.43 -0.62 C-13.24 -2.24, -10.2 -4.95, -5.9 -10.43 M-14.43 -0.62 C-11.91 -4.05, -9.25 -6.7, -5.9 -10.43 M-52.74 49.55 C-39.31 35.6, -24.29 17.22, -17.32 8.8 M-52.74 49.55 C-43.26 37.77, -32.57 27.19, -17.32 8.8 M-12.07 2.76 C-10.22 -1.92, -5.58 -5.45, -3.54 -7.05 M-12.07 2.76 C-9.11 -0.61, -5.29 -4.76, -3.54 -7.05 M-47.1 49.16 C-32.3 28.29, -12.84 9.68, -1.18 -3.67 M-47.1 49.16 C-36.36 38.1, -26.95 26.13, -1.18 -3.67 M-41.46 48.76 C-30.64 33.98, -16.88 19.8, 0.53 0.46 M-41.46 48.76 C-30.28 35.94, -18.62 21.96, 0.53 0.46 M-35.81 48.37 C-19.52 28.23, -4.28 8.03, 7.49 -1.44 M-35.81 48.37 C-27.02 38.01, -17.66 28.1, 7.49 -1.44 M-28.2 45.71 C-14.42 30.53, -1.97 14, 12.47 -1.08 M-28.2 45.71 C-16.78 32.47, -3.8 17.48, 12.47 -1.08 M-19.28 41.54 C-15.33 34.39, -6.58 30.33, -2.88 22.67 M-19.28 41.54 C-14.34 37.07, -10.23 31.24, -2.88 22.67 M6.96 11.35 C8.68 7.5, 12.12 3.91, 15.49 1.54 M6.96 11.35 C9.63 8.13, 13.14 3.88, 15.49 1.54" stroke="#228be6" stroke-width="0.5" fill="none"></path><path d="M-0.35 0.49 C-0.44 -0.77, -0.63 -4.54, -1.52 -6.5 C-2.41 -8.46, -3.6 -10.23, -5.7 -11.26 C-7.8 -12.28, -12.26 -13.35, -14.11 -12.67 C-15.96 -11.99, -16.86 -9.59, -16.8 -7.16 C-16.74 -4.73, -14.62 -0.16, -13.72 1.91 C-12.82 3.98, -10.93 4.09, -11.4 5.24 C-11.87 6.39, -13.59 8.21, -16.55 8.81 C-19.5 9.42, -24.99 8.74, -29.11 8.86 C-33.23 8.99, -33.47 9.42, -41.27 9.58 C-49.07 9.74, -68.39 9.81, -75.91 9.82 C-83.43 9.84, -84.29 8.54, -86.42 9.66 C-88.55 10.77, -89.11 13.15, -88.68 16.5 C-88.25 19.84, -86.23 25.63, -83.85 29.72 C-81.48 33.82, -77.42 38.42, -74.42 41.07 C-71.42 43.73, -69.42 44.2, -65.86 45.64 C-62.29 47.09, -58.21 49.37, -53.04 49.73 C-47.88 50.09, -40.85 49.28, -34.85 47.79 C-28.86 46.3, -21.78 43.4, -17.07 40.79 C-12.36 38.18, -9.24 35.46, -6.58 32.14 C-3.92 28.83, -2.38 23.99, -1.12 20.89 C0.14 17.8, -0.3 15.12, 1 13.57 C2.3 12.02, 4.61 12.27, 6.68 11.57 C8.76 10.88, 11.34 10.79, 13.44 9.39 C15.53 8, 19.53 4.78, 19.23 3.19 C18.93 1.61, 13.92 0.68, 11.64 -0.1 C9.35 -0.89, 7.31 -1.44, 5.52 -1.51 C3.72 -1.57, 1.61 -0.55, 0.86 -0.49 M1.67 -0.3 C1.57 -0.87, -0.85 -3.57, -2.11 -5.17 C-3.36 -6.77, -3.81 -8.27, -5.85 -9.9 C-7.89 -11.53, -12.81 -15.39, -14.34 -14.95 C-15.87 -14.52, -14.81 -10.05, -15.04 -7.31 C-15.28 -4.57, -16.39 -0.91, -15.77 1.47 C-15.15 3.85, -11 5.79, -11.33 6.96 C-11.67 8.13, -14.52 7.82, -17.77 8.49 C-21.02 9.16, -26.53 10.83, -30.83 10.98 C-35.14 11.14, -36.08 9.99, -43.58 9.42 C-51.07 8.85, -68.48 7.58, -75.81 7.55 C-83.14 7.53, -85.41 7.95, -87.58 9.27 C-89.76 10.6, -89.38 12.04, -88.86 15.49 C-88.34 18.94, -86.96 25.76, -84.46 29.97 C-81.96 34.19, -77.04 38.03, -73.87 40.76 C-70.7 43.5, -69.24 45.32, -65.45 46.4 C-61.66 47.48, -56.6 46.92, -51.16 47.26 C-45.71 47.61, -38.31 49.48, -32.8 48.46 C-27.28 47.44, -22 44.12, -18.06 41.14 C-14.13 38.16, -11.91 34.09, -9.19 30.6 C-6.48 27.1, -3.53 23.15, -1.76 20.17 C0 17.2, 0.04 14.3, 1.41 12.73 C2.77 11.15, 4.26 11.35, 6.45 10.72 C8.64 10.09, 12.64 10.15, 14.54 8.94 C16.44 7.74, 18.22 4.93, 17.85 3.5 C17.48 2.07, 14.71 1.23, 12.33 0.36 C9.95 -0.51, 5.79 -1.9, 3.58 -1.74 C1.36 -1.59, -0.63 1.04, -0.95 1.29" stroke="#000000" stroke-width="1" fill="none"></path></g></g><mask></mask><g stroke-linecap="round" transform="translate(407.42347779601363 42.37582799983373) rotate(0 5.01962367137682 4.780972783672702)"><path d="M0 0 C0 0, 0 0, 0 0 M0 0 C0 0, 0 0, 0 0 M-0.26 6.4 C0.96 5.04, 2.42 3.1, 4.99 0.36 M-0.26 6.4 C0.9 5.28, 2.03 3.97, 4.99 0.36 M2.1 9.78 C4.9 6.14, 8.17 2.73, 10.63 -0.03 M2.1 9.78 C4.65 6.96, 6.92 4.46, 10.63 -0.03 M7.09 10.14 C8.14 9.1, 8.87 7.67, 10.37 6.36 M7.09 10.14 C8.18 8.86, 9.4 7.57, 10.37 6.36" stroke="#228be6" stroke-width="0.5" fill="none"></path><path d="M0 0 C2.56 0.46, 5.47 -0.41, 10.04 0 M0 0 C3.53 0.28, 6.67 -0.19, 10.04 0 M10.04 0 C9.92 3.01, 10.26 4.96, 10.04 9.56 M10.04 0 C9.9 3.41, 10.09 7.14, 10.04 9.56 M10.04 9.56 C6.28 9.1, 3.67 9.26, 0 9.56 M10.04 9.56 C6.77 9.66, 3.23 9.76, 0 9.56 M0 9.56 C-0.03 6.11, 0.29 3.93, 0 0 M0 9.56 C0.13 6.75, 0.21 3.69, 0 0" stroke="#000000" stroke-width="1" fill="none"></path></g><g stroke-linecap="round" transform="translate(419.0219109384343 42.23263746721129) rotate(0 4.820747931623373 4.820747931623387)"><path d="M0 0 C0 0, 0 0, 0 0 M0 0 C0 0, 0 0, 0 0 M-0.26 6.4 C0.74 5.09, 2 3.54, 4.99 0.36 M-0.26 6.4 C1.1 4.94, 2.39 3.35, 4.99 0.36 M2.1 9.78 C4.92 6.51, 7.47 3.09, 9.97 0.72 M2.1 9.78 C4.62 6.97, 6.8 4.32, 9.97 0.72 M7.09 10.14 C7.85 8.97, 9.02 8.13, 10.37 6.36 M7.09 10.14 C7.95 9.21, 8.74 8.21, 10.37 6.36" stroke="#228be6" stroke-width="0.5" fill="none"></path><path d="M0 0 C3.46 -0.28, 7.03 -0.25, 9.64 0 M0 0 C1.92 -0.18, 4.08 -0.03, 9.64 0 M9.64 0 C9.78 2.7, 9.84 5.76, 9.64 9.64 M9.64 0 C9.65 3.07, 9.68 5.98, 9.64 9.64 M9.64 9.64 C7.94 9.45, 5.93 9.82, 0 9.64 M9.64 9.64 C6.71 9.77, 3.59 9.78, 0 9.64 M0 9.64 C0.22 7.39, 0.01 4.27, 0 0 M0 9.64 C0.1 5.74, 0.13 1.82, 0 0" stroke="#000000" stroke-width="1" fill="none"></path></g><g stroke-linecap="round" transform="translate(430.5407937849537 42.39173805901402) rotate(0 4.741197635722017 4.741197635722017)"><path d="M0 0 C0 0, 0 0, 0 0 M0 0 C0 0, 0 0, 0 0 M-0.26 6.4 C1.6 4.01, 3.79 1.69, 4.99 0.36 M-0.26 6.4 C1.7 4.14, 3.61 1.96, 4.99 0.36 M2.1 9.78 C4.09 6.96, 6.38 5.19, 9.97 0.72 M2.1 9.78 C3.84 7.7, 5.55 5.78, 9.97 0.72 M7.09 10.14 C8.32 8.96, 9.3 7.49, 10.37 6.36 M7.09 10.14 C8.12 8.91, 9.21 7.81, 10.37 6.36" stroke="#228be6" stroke-width="0.5" fill="none"></path><path d="M0 0 C3.91 -0.19, 7.27 0.13, 9.48 0 M0 0 C3.7 0.03, 7.49 -0.01, 9.48 0 M9.48 0 C9.7 3.85, 9.52 7.25, 9.48 9.48 M9.48 0 C9.54 2.62, 9.33 5, 9.48 9.48 M9.48 9.48 C7.57 9.66, 5.4 9.75, 0 9.48 M9.48 9.48 C6.31 9.63, 3.03 9.51, 0 9.48 M0 9.48 C-0.02 7.2, 0.29 5.51, 0 0 M0 9.48 C0.11 6.17, -0.11 3.26, 0 0" stroke="#000000" stroke-width="1" fill="none"></path></g><g stroke-linecap="round" transform="translate(441.7414754478672 42.29627770393233) rotate(0 4.741197635722017 4.741197635722017)"><path d="M0 0 C0 0, 0 0, 0 0 M0 0 C0 0, 0 0, 0 0 M-0.26 6.4 C1.47 4.36, 3.64 2.28, 4.99 0.36 M-0.26 6.4 C1.54 4.35, 3.19 2.4, 4.99 0.36 M2.1 9.78 C4.27 7.65, 6.13 5.21, 9.97 0.72 M2.1 9.78 C3.96 7.63, 5.99 5.23, 9.97 0.72 M7.09 10.14 C7.8 9.18, 8.71 8.37, 10.37 6.36 M7.09 10.14 C8.22 8.96, 9.2 7.74, 10.37 6.36" stroke="#228be6" stroke-width="0.5" fill="none"></path><path d="M0 0 C1.85 0.12, 4.55 -0.27, 9.48 0 M0 0 C1.94 -0.04, 4.06 0.07, 9.48 0 M9.48 0 C9.52 2.31, 9.41 5.08, 9.48 9.48 M9.48 0 C9.34 3.39, 9.36 7.13, 9.48 9.48 M9.48 9.48 C7.17 9.78, 4.88 9.72, 0 9.48 M9.48 9.48 C5.88 9.51, 2.25 9.62, 0 9.48 M0 9.48 C0.31 5.82, 0.1 2.13, 0 0 M0 9.48 C-0.11 7.11, -0.1 4.52, 0 0" stroke="#000000" stroke-width="1" fill="none"></path></g><g stroke-linecap="round" transform="translate(453.08534764340357 42.39173805901402) rotate(0 4.741197635722017 4.741197635722017)"><path d="M0 0 C0 0, 0 0, 0 0 M0 0 C0 0, 0 0, 0 0 M-0.26 6.4 C1.53 4.68, 3.06 2.82, 4.99 0.36 M-0.26 6.4 C1.05 4.86, 2.41 3.23, 4.99 0.36 M2.1 9.78 C3.46 8.23, 5.2 5.95, 9.97 0.72 M2.1 9.78 C4.29 7.17, 6.18 5.05, 9.97 0.72 M7.09 10.14 C8.36 8.79, 9.62 7.31, 10.37 6.36 M7.09 10.14 C7.89 9.23, 8.69 8.29, 10.37 6.36" stroke="#228be6" stroke-width="0.5" fill="none"></path><path d="M0 0 C2.49 -0.3, 4.09 -0.11, 9.48 0 M0 0 C3.02 0.08, 5.68 0.11, 9.48 0 M9.48 0 C9.39 3.27, 9.71 6.55, 9.48 9.48 M9.48 0 C9.32 3.33, 9.37 6.51, 9.48 9.48 M9.48 9.48 C6.16 9.73, 2.84 9.57, 0 9.48 M9.48 9.48 C5.74 9.59, 2.42 9.49, 0 9.48 M0 9.48 C0.07 7.56, -0.16 5.46, 0 0 M0 9.48 C-0.05 7.53, 0.05 5.79, 0 0" stroke="#000000" stroke-width="1" fill="none"></path></g><g stroke-linecap="round" transform="translate(441.59828491524496 31.09559604101861) rotate(0 4.820747931623373 4.820747931623387)"><path d="M0 0 C0 0, 0 0, 0 0 M0 0 C0 0, 0 0, 0 0 M-0.26 6.4 C1.59 4.48, 3.16 2.44, 4.99 0.36 M-0.26 6.4 C1.12 4.73, 2.44 3.16, 4.99 0.36 M2.1 9.78 C4.92 6.3, 8.04 2.71, 9.97 0.72 M2.1 9.78 C4.45 7.05, 7.19 4.01, 9.97 0.72 M7.09 10.14 C8.05 9.1, 8.85 8.15, 10.37 6.36 M7.09 10.14 C8.19 8.87, 9.32 7.65, 10.37 6.36" stroke="#228be6" stroke-width="0.5" fill="none"></path><path d="M0 0 C2.9 -0.07, 6.41 0, 9.64 0 M0 0 C2.6 0.09, 5.37 0, 9.64 0 M9.64 0 C9.86 2.38, 9.76 4.22, 9.64 9.64 M9.64 0 C9.53 2.21, 9.72 4.3, 9.64 9.64 M9.64 9.64 C6.14 9.73, 2.41 9.56, 0 9.64 M9.64 9.64 C6.89 9.67, 3.71 9.82, 0 9.64 M0 9.64 C-0.14 6.63, -0.33 2.89, 0 0 M0 9.64 C0.04 6.38, 0.16 2.95, 0 0" stroke="#000000" stroke-width="1" fill="none"></path></g><g stroke-linecap="round" transform="translate(430.81126479101823 31.652448112328244) rotate(0 4.582097043919248 4.582097043919262)"><path d="M0 0 C0 0, 0 0, 0 0 M0 0 C0 0, 0 0, 0 0 M-0.26 6.4 C1.48 4.38, 3.37 2.03, 4.99 0.36 M-0.26 6.4 C1.27 4.52, 3.14 2.53, 4.99 0.36 M2.1 9.78 C4.86 6.41, 7.9 3.35, 9.32 1.47 M2.1 9.78 C3.72 7.99, 5.01 6.43, 9.32 1.47 M7.09 10.14 C7.73 9.43, 8.51 8.54, 9.06 7.87 M7.09 10.14 C7.74 9.44, 8.34 8.64, 9.06 7.87" stroke="#228be6" stroke-width="0.5" fill="none"></path><path d="M0 0 C1.92 -0.01, 3.75 0.29, 9.16 0 M0 0 C3.23 -0.01, 6.23 -0.07, 9.16 0 M9.16 0 C9.31 2.58, 8.95 5.52, 9.16 9.16 M9.16 0 C9.24 3.42, 9.28 6.86, 9.16 9.16 M9.16 9.16 C6.02 9.07, 2.38 8.91, 0 9.16 M9.16 9.16 C5.66 9.31, 2.45 9.21, 0 9.16 M0 9.16 C-0.29 5.59, 0.17 2.21, 0 0 M0 9.16 C0.13 6.78, -0.11 4.15, 0 0" stroke="#000000" stroke-width="1" fill="none"></path></g><g stroke-linecap="round" transform="translate(419.2128316485976 31.572897816426888) rotate(0 4.582097043919248 4.582097043919262)"><path d="M0 0 C0 0, 0 0, 0 0 M0 0 C0 0, 0 0, 0 0 M-0.26 6.4 C1.5 4.2, 3.45 2.1, 4.99 0.36 M-0.26 6.4 C1.24 4.72, 2.63 3.17, 4.99 0.36 M2.1 9.78 C4.39 7.4, 6.2 4.46, 9.32 1.47 M2.1 9.78 C4.54 6.95, 7.16 4.1, 9.32 1.47 M7.09 10.14 C7.76 9.41, 8.38 8.67, 9.06 7.87 M7.09 10.14 C7.68 9.4, 8.31 8.64, 9.06 7.87" stroke="#228be6" stroke-width="0.5" fill="none"></path><path d="M0 0 C2.38 0.29, 5.06 -0.1, 9.16 0 M0 0 C3.24 -0.05, 6.7 0.11, 9.16 0 M9.16 0 C8.94 2.82, 9.39 5.98, 9.16 9.16 M9.16 0 C9.32 3.24, 9.29 6.49, 9.16 9.16 M9.16 9.16 C6.24 8.9, 3.52 9.46, 0 9.16 M9.16 9.16 C6.46 9.24, 3.74 9.13, 0 9.16 M0 9.16 C0.18 5.48, -0.07 2.13, 0 0 M0 9.16 C-0.14 5.65, -0.1 2.51, 0 0" stroke="#000000" stroke-width="1" fill="none"></path></g><g stroke-linecap="round" transform="translate(441.439184323442 19.894914378104858) rotate(0 4.820747931623373 4.820747931623387)"><path d="M0 0 C0 0, 0 0, 0 0 M0 0 C0 0, 0 0, 0 0 M-0.26 6.4 C1.62 4.22, 3.32 1.94, 4.99 0.36 M-0.26 6.4 C1.42 4.53, 2.87 2.76, 4.99 0.36 M2.1 9.78 C3.93 6.98, 6.73 4.96, 9.97 0.72 M2.1 9.78 C4.17 7.56, 6.07 5.16, 9.97 0.72 M7.09 10.14 C8.41 8.64, 9.68 7.2, 10.37 6.36 M7.09 10.14 C8.32 8.59, 9.61 7.23, 10.37 6.36" stroke="#228be6" stroke-width="0.5" fill="none"></path><path d="M0 0 C2.96 -0.14, 5.84 0.1, 9.64 0 M0 0 C2.98 0.12, 5.97 0.07, 9.64 0 M9.64 0 C9.84 1.77, 9.77 4.06, 9.64 9.64 M9.64 0 C9.78 3.16, 9.7 6.21, 9.64 9.64 M9.64 9.64 C7.3 9.93, 4.51 9.38, 0 9.64 M9.64 9.64 C5.93 9.59, 2.12 9.49, 0 9.64 M0 9.64 C-0.12 7.32, 0.21 5.18, 0 0 M0 9.64 C-0.05 6.49, 0.01 3.04, 0 0" stroke="#000000" stroke-width="1" fill="none"></path></g><g stroke-linecap="round" transform="translate(388.67708778598546 10) rotate(0 564.2857360839844 359.642858505249)"><path d="M32 0 C451.37 2.25, 871.45 1.74, 1096.57 0 M32 0 C342.54 0.58, 653.05 0.68, 1096.57 0 M1096.57 0 C1117.82 1.94, 1127.5 12.48, 1128.57 32 M1096.57 0 C1116.91 1.55, 1127.07 12.16, 1128.57 32 M1128.57 32 C1131.57 249.92, 1130.39 469.95, 1128.57 687.29 M1128.57 32 C1129.91 284.91, 1130.29 538.05, 1128.57 687.29 M1128.57 687.29 C1126.89 708.75, 1116.21 721.18, 1096.57 719.29 M1128.57 687.29 C1130.14 708.74, 1120.09 718.6, 1096.57 719.29 M1096.57 719.29 C752.21 722.57, 407.96 723.83, 32 719.29 M1096.57 719.29 C738.68 716.09, 379.99 715.74, 32 719.29 M32 719.29 C9.91 719.63, 1.11 707.38, 0 687.29 M32 719.29 C11.16 721.55, 0.28 709.83, 0 687.29 M0 687.29 C-0.58 455.23, 0.34 221.6, 0 32 M0 687.29 C1.96 513.64, 1.67 339.66, 0 32 M0 32 C-0.36 9.55, 10.36 -1.33, 32 0 M0 32 C-1.26 12.18, 9.94 1.05, 32 0" stroke="#1e1e1e" stroke-width="2" fill="none"></path></g><g stroke-linecap="round"><g transform="translate(368.3964023611808 416.3296420203751) rotate(0 -120.61223711286266 5.011197840956413)"><path d="M-0.31 -0.59 C-40.34 1.07, -200.51 7.79, -240.64 9.62 M1.72 1.72 C-38.37 3.58, -200.7 9.86, -241.29 10.94" stroke="#1e1e1e" stroke-width="2" fill="none"></path></g><g transform="translate(368.3964023611808 416.3296420203751) rotate(0 -120.61223711286266 5.011197840956413)"><path d="M-218.1 1.6 C-225.09 4.92, -230.77 6.55, -241.29 10.94 M-218.1 1.6 C-225.66 4.32, -233.7 8.07, -241.29 10.94" stroke="#1e1e1e" stroke-width="2" fill="none"></path></g><g transform="translate(368.3964023611808 416.3296420203751) rotate(0 -120.61223711286266 5.011197840956413)"><path d="M-217.52 18.7 C-224.61 17.6, -230.44 14.82, -241.29 10.94 M-217.52 18.7 C-225.2 15.8, -233.43 13.94, -241.29 10.94" stroke="#1e1e1e" stroke-width="2" fill="none"></path></g></g><mask></mask><g stroke-linecap="round"><g transform="translate(494.36866957977975 329.26372702433997) rotate(0 0.7289134028417834 -28.736833575562258)"><path d="M-0.82 -0.58 C-0.32 -10.14, 1.33 -48.55, 1.84 -57.96 M0.95 1.73 C1.43 -7.61, 0.93 -46.53, 1.09 -56.68" stroke="#1e1e1e" stroke-width="2" fill="none"></path></g><g transform="translate(494.36866957977975 329.26372702433997) rotate(0 0.7289134028417834 -28.736833575562258)"><path d="M9.63 -33.18 C7.05 -37.37, 5.47 -41.44, 1.09 -56.68 M9.63 -33.18 C7.08 -40.24, 3.82 -48.16, 1.09 -56.68" stroke="#1e1e1e" stroke-width="2" fill="none"></path></g><g transform="translate(494.36866957977975 329.26372702433997) rotate(0 0.7289134028417834 -28.736833575562258)"><path d="M-7.48 -33.19 C-6.58 -37.27, -4.69 -41.33, 1.09 -56.68 M-7.48 -33.19 C-4.26 -40.41, -1.75 -48.32, 1.09 -56.68" stroke="#1e1e1e" stroke-width="2" fill="none"></path></g></g><mask></mask><g stroke-linecap="round"><g transform="translate(510.65030559033903 276.8689383554876) rotate(0 0.8578613160011628 26.813722873630326)"><path d="M0.71 -0.31 C0.95 8.71, 1.16 45.27, 1.25 54.23 M-0.38 -1.52 C-0.33 7.13, -0.04 43.06, 0.05 52.43" stroke="#1e1e1e" stroke-width="2" fill="none"></path></g><g transform="translate(510.65030559033903 276.8689383554876) rotate(0 0.8578613160011628 26.813722873630326)"><path d="M-8.7 29.01 C-6.69 34.86, -2.67 41.46, 0.05 52.43 M-8.7 29.01 C-6.08 34.99, -3.73 42.88, 0.05 52.43" stroke="#1e1e1e" stroke-width="2" fill="none"></path></g><g transform="translate(510.65030559033903 276.8689383554876) rotate(0 0.8578613160011628 26.813722873630326)"><path d="M8.4 28.86 C5.53 34.85, 4.67 41.49, 0.05 52.43 M8.4 28.86 C6.16 34.93, 3.64 42.87, 0.05 52.43" stroke="#1e1e1e" stroke-width="2" fill="none"></path></g></g><mask></mask><g transform="translate(517.3760253383014 39.00503703526087) rotate(0 85.49992370605469 12.5)"><text x="0" y="0" font-family="Virgil, Segoe UI Emoji" font-size="20px" fill="#1e1e1e" text-anchor="start" style="white-space: pre;" direction="ltr" dominant-baseline="text-before-edge">docker containers</text></g><g stroke-linecap="round" transform="translate(769.5987987847863 440.82830708600125) rotate(0 55.53580038062728 22.852051831262912)"><path d="M57.96 0.5 L112.73 21.71 L57 45.8 L0.9 21.05" stroke="none" stroke-width="0" fill="#c6302b" fill-rule="evenodd"></path><path d="M56 0 C77.92 6.5, 99.19 18.53, 111.07 23 M56 0 C68.18 5.45, 82.24 9.77, 111.07 23 M111.07 23 C98.51 25.59, 87.69 31.45, 56 45.7 M111.07 23 C96.65 28.64, 84.12 33.59, 56 45.7 M56 45.7 C37.91 36.6, 21.73 30.04, 0 23 M56 45.7 C40.98 39.62, 24.18 33.43, 0 23 M0 23 C10.17 19.04, 24.22 13.67, 56 0 M0 23 C13.84 17.36, 29.46 10.74, 56 0" stroke="#000000" stroke-width="1" fill="none"></path></g><g stroke-linecap="round"><g transform="translate(768.9079227991898 463.4279234609886) rotate(0 55.31658011596693 15.305560296287723)" fill-rule="evenodd"><path d="M1.12 0.78 C0.59 1.7, -2.13 3.59, -2.29 4.8 C-2.45 6.02, -3.81 6.35, 0.15 8.07 C4.12 9.8, 13.6 11.79, 21.49 15.16 C29.39 18.53, 41.71 25.89, 47.49 28.28 C53.27 30.67, 53.51 29.3, 56.17 29.51 C58.84 29.72, 58.32 31.22, 63.48 29.54 C68.63 27.86, 79.33 23.04, 87.1 19.44 C94.87 15.83, 105.79 10.33, 110.11 7.9 C114.43 5.47, 112.75 6.41, 113.03 4.87 C113.32 3.32, 113.67 -1.29, 111.82 -1.34 C109.97 -1.39, 110.15 1.32, 101.93 4.58 C93.71 7.84, 71.35 15.47, 62.52 18.22 C53.69 20.97, 59.59 24.11, 48.95 21.05 C38.32 18, 6.97 3.71, -1.28 -0.12" stroke="none" stroke-width="0" fill="#912626" fill-rule="evenodd"></path><path d="M-1.17 1.14 C-1.09 1.52, 0.2 1.88, 0.88 3.06 C1.55 4.24, -0.79 5.77, 2.88 8.22 C6.55 10.66, 15.4 14.58, 22.91 17.71 C30.43 20.84, 42.6 25.02, 47.97 26.99 C53.33 28.97, 52.43 29.53, 55.08 29.55 C57.74 29.56, 58.5 29.11, 63.89 27.09 C69.29 25.06, 80.12 20.64, 87.47 17.4 C94.81 14.16, 104.18 9.77, 107.95 7.64 C111.71 5.51, 109.85 5.89, 110.05 4.62 C110.25 3.34, 110.57 0.2, 109.15 -0.01 C107.74 -0.22, 109.51 -0.1, 101.58 3.34 C93.66 6.77, 70.25 17.83, 61.6 20.6 C52.96 23.38, 60.13 23.3, 49.7 19.98 C39.27 16.66, 7.4 4.07, -0.98 0.69 M0.42 0.69 C0.39 1.14, 0.06 3.24, 0.39 4.16 C0.72 5.07, -1.32 4.32, 2.42 6.2 C6.15 8.07, 15.36 11.95, 22.8 15.43 C30.23 18.91, 41.51 24.37, 47.02 27.06 C52.53 29.76, 53.03 31.28, 55.88 31.61 C58.73 31.93, 58.51 31.49, 64.13 29.02 C69.75 26.55, 81.96 20.02, 89.58 16.79 C97.19 13.55, 106.33 11.68, 109.82 9.6 C113.31 7.53, 110.63 5.81, 110.52 4.35 C110.41 2.89, 110.79 0.57, 109.14 0.85 C107.49 1.12, 108.49 2.83, 100.63 5.98 C92.76 9.14, 70.59 17.49, 61.93 19.78 C53.27 22.06, 59.18 22.88, 48.67 19.67 C38.15 16.45, 6.93 3.64, -1.17 0.49" stroke="#000000" stroke-width="1" fill="none"></path></g></g><mask></mask><g stroke-linecap="round"><g transform="translate(768.7352038027908 446.3287428174797) rotate(0 55.31658011596693 15.305560296287723)" fill-rule="evenodd"><path d="M-2.29 0.9 C-2.84 1.5, -2.58 3.6, -2.16 4.38 C-1.74 5.16, -4.18 3.34, 0.2 5.59 C4.59 7.83, 16.35 14.36, 24.13 17.85 C31.91 21.33, 41.73 24.09, 46.89 26.51 C52.04 28.92, 52.32 31.87, 55.06 32.34 C57.8 32.81, 57.42 31.78, 63.31 29.32 C69.2 26.86, 82.51 21, 90.39 17.59 C98.26 14.18, 106.87 11.34, 110.58 8.85 C114.29 6.36, 112.6 4.09, 112.67 2.67 C112.74 1.26, 112.81 0.45, 111 0.35 C109.2 0.26, 110.31 -1.44, 101.82 2.08 C93.32 5.59, 68.84 18.45, 60.05 21.45 C51.25 24.45, 59.13 23.99, 49.03 20.09 C38.93 16.19, 7.72 1.65, -0.56 -1.92" stroke="none" stroke-width="0" fill="#912626" fill-rule="evenodd"></path><path d="M0.88 -0.84 C1.17 -0.28, 0.45 3.03, 0.57 4.52 C0.69 6.02, -2.39 6.13, 1.62 8.13 C5.63 10.14, 17.24 13.49, 24.6 16.56 C31.97 19.63, 40.65 24.32, 45.8 26.54 C50.94 28.77, 52.5 29.77, 55.48 29.89 C58.46 30.01, 58.22 29.38, 63.68 27.29 C69.14 25.19, 80.91 20.44, 88.23 17.33 C95.55 14.21, 103.97 10.82, 107.6 8.6 C111.23 6.38, 109.49 5.58, 110 4 C110.51 2.42, 112.17 -0.96, 110.66 -0.89 C109.14 -0.81, 109.21 0.92, 100.9 4.46 C92.59 8, 69.39 17.64, 60.79 20.38 C52.2 23.12, 59.57 24.34, 49.33 20.9 C39.1 17.45, 7.54 3.24, -0.61 -0.3 M-0.12 1.33 C0.16 2.05, -0.18 1.93, -0.08 2.72 C0.02 3.51, -3.75 3.64, 0.49 6.07 C4.73 8.51, 17.56 13.96, 25.37 17.34 C33.19 20.72, 42.19 23.91, 47.37 26.38 C52.56 28.84, 53.75 31.64, 56.48 32.13 C59.22 32.62, 58.7 31.9, 63.8 29.33 C68.9 26.75, 79.5 20.32, 87.08 16.67 C94.66 13.02, 105.39 9.62, 109.29 7.41 C113.18 5.2, 110.08 4.74, 110.44 3.42 C110.8 2.1, 113.24 -0.59, 111.43 -0.49 C109.63 -0.39, 108.05 0.71, 99.59 4.03 C91.14 7.35, 68.66 16.59, 60.69 19.43 C52.72 22.27, 61.99 24.47, 51.77 21.07 C41.56 17.66, 7.74 2.37, -0.6 -1.02" stroke="#000000" stroke-width="1" fill="none"></path></g></g><mask></mask><g stroke-linecap="round" transform="translate(768.90792279919 423.2109694532951) rotate(0 55.53580038062728 22.852051831262912)"><path d="M56.9 -1.95 L109.96 23.69 L54.95 45.61 L-0.46 21.43" stroke="none" stroke-width="0" fill="#c6302b" fill-rule="evenodd"></path><path d="M56 0 C77.41 7.17, 97.82 18.57, 111.07 23 M56 0 C68.83 5.61, 82.35 11.5, 111.07 23 M111.07 23 C96.11 28.06, 79.64 36.93, 56 45.7 M111.07 23 C99.24 27.49, 87.58 32.93, 56 45.7 M56 45.7 C41.55 41.17, 28.81 32.73, 0 23 M56 45.7 C36.48 37.35, 18.7 30.8, 0 23 M0 23 C18.13 15.34, 34.57 11.2, 56 0 M0 23 C16.64 15.63, 32.35 9.73, 56 0" stroke="#000000" stroke-width="1" fill="none"></path></g><g stroke-linecap="round" transform="translate(768.2020125689679 405.05030121248336) rotate(0 55.53580038062728 22.852051831262912)"><path d="M54.89 0.69 L110.02 22.9 L55.54 44.13 L-0.52 21.9" stroke="none" stroke-width="0" fill="#c6302b" fill-rule="evenodd"></path><path d="M56 0 C76.15 9.98, 93.37 14.36, 111.07 23 M56 0 C66.66 4.76, 78.92 9.55, 111.07 23 M111.07 23 C96.86 29.88, 81.54 34.47, 56 45.7 M111.07 23 C93.64 30.27, 77.44 36.25, 56 45.7 M56 45.7 C37.85 36.45, 19.08 28.91, 0 23 M56 45.7 C38.53 38.27, 20.4 30.29, 0 23 M0 23 C15.15 19.11, 27.71 13.71, 56 0 M0 23 C18.51 15.93, 36.67 7.43, 56 0" stroke="#000000" stroke-width="1" fill="none"></path></g><g stroke-linecap="round"><g transform="translate(768.0292935725689 428.16807457666795) rotate(0 55.31658011596693 15.305560296287723)" fill-rule="evenodd"><path d="M0.53 0.67 C0.87 1.48, -0.18 1.36, -0.08 2.81 C0.02 4.25, -2.6 6.68, 1.12 9.33 C4.84 11.98, 14.28 15.7, 22.24 18.69 C30.2 21.68, 42.83 25.19, 48.89 27.27 C54.96 29.36, 55.68 31.4, 58.65 31.22 C61.62 31.05, 61.53 28.43, 66.7 26.23 C71.88 24.03, 82.58 21.43, 89.68 18.04 C96.78 14.64, 106.02 8.01, 109.29 5.85 C112.55 3.69, 109.4 6.05, 109.27 5.1 C109.14 4.14, 110.02 0.55, 108.5 0.12 C106.98 -0.3, 108.1 -0.65, 100.15 2.54 C92.19 5.73, 68.69 16.53, 60.77 19.26 C52.85 21.98, 62.73 22.07, 52.64 18.88 C42.56 15.7, 8.62 3.46, 0.25 0.15" stroke="none" stroke-width="0" fill="#912626" fill-rule="evenodd"></path><path d="M1 -0.61 C0.92 -0.23, -1.26 1.59, -1.17 2.84 C-1.08 4.09, -2.43 4.58, 1.54 6.88 C5.5 9.18, 15.08 13.29, 22.61 16.65 C30.14 20.01, 41.22 24.62, 46.73 27.01 C52.24 29.4, 52.79 30.88, 55.67 30.98 C58.56 31.07, 58.43 29.92, 64.04 27.56 C69.65 25.2, 81.94 20.02, 89.33 16.8 C96.72 13.58, 104.93 10.36, 108.38 8.23 C111.82 6.1, 109.94 5.24, 110.01 4.02 C110.09 2.81, 110.45 0.9, 108.8 0.93 C107.15 0.95, 107.92 0.94, 100.1 4.16 C92.27 7.39, 70.05 17.53, 61.85 20.27 C53.64 23.01, 61.36 23.9, 50.86 20.59 C40.37 17.29, 7.53 3.83, -1.12 0.44 M0.07 1.68 C0.4 2.13, 0.27 2.8, 0.93 3.82 C1.59 4.84, 0.46 5.54, 4.02 7.82 C7.59 10.09, 15.48 14.27, 22.34 17.48 C29.19 20.69, 39.4 24.98, 45.14 27.09 C50.88 29.2, 53.58 30.29, 56.78 30.13 C59.98 29.96, 59.02 27.85, 64.35 26.08 C69.68 24.32, 81.69 22.73, 88.76 19.53 C95.84 16.32, 103.19 9.53, 106.81 6.85 C110.42 4.17, 110.16 4.82, 110.46 3.45 C110.76 2.08, 110.01 -1.41, 108.61 -1.39 C107.2 -1.36, 109.74 0.14, 102.02 3.58 C94.31 7.03, 70.91 16.43, 62.31 19.27 C53.71 22.11, 61.06 23.8, 50.45 20.6 C39.83 17.41, 7.12 3.28, -1.38 0.11" stroke="#000000" stroke-width="1" fill="none"></path></g></g><mask></mask><g stroke-linecap="round" transform="translate(788.0783534317862 422.39064677046895) rotate(0 11.988730338289088 5.283169301618926)"><path d="M14.85 0.64 C17.27 0.77, 19.89 1.09, 21.45 1.87 C23.02 2.64, 24.29 4.15, 24.24 5.29 C24.19 6.44, 23.06 7.85, 21.15 8.73 C19.25 9.62, 15.41 10.37, 12.82 10.57 C10.23 10.78, 7.7 10.53, 5.61 9.96 C3.52 9.38, 1.05 8.33, 0.28 7.13 C-0.48 5.93, -0.04 3.9, 1.01 2.75 C2.06 1.59, 4.15 0.6, 6.58 0.2 C9.01 -0.19, 14.16 0.4, 15.57 0.37 C16.98 0.34, 15.24 -0.04, 15.06 0.03 M10.44 0.67 C12.94 0.48, 15.99 0.19, 18.16 0.69 C20.34 1.19, 22.64 2.49, 23.51 3.69 C24.37 4.89, 24.23 6.83, 23.35 7.88 C22.47 8.93, 20.57 9.6, 18.21 10 C15.86 10.41, 11.91 10.47, 9.23 10.31 C6.56 10.15, 3.77 9.98, 2.18 9.04 C0.6 8.1, -0.51 5.95, -0.3 4.69 C-0.09 3.44, 1.64 2.4, 3.45 1.53 C5.25 0.66, 9.46 -0.39, 10.53 -0.54 C11.59 -0.69, 9.82 0.35, 9.84 0.63" stroke="none" stroke-width="0" fill="#ffff"></path><path d="M9.84 -0.03 C12.24 -0.24, 15.6 -0.05, 17.87 0.5 C20.14 1.05, 22.59 2.11, 23.46 3.28 C24.33 4.45, 24.11 6.4, 23.1 7.52 C22.08 8.63, 19.6 9.52, 17.38 9.97 C15.15 10.42, 12.21 10.51, 9.75 10.22 C7.29 9.92, 4.19 9.09, 2.61 8.22 C1.03 7.34, 0.26 5.99, 0.29 4.96 C0.32 3.93, 1.14 2.8, 2.78 2.02 C4.42 1.24, 8.82 0.67, 10.14 0.28 C11.46 -0.11, 10.61 -0.3, 10.69 -0.32 M12.73 0.21 C15.28 0.24, 18.31 0.25, 20.1 1.07 C21.9 1.89, 23.26 3.89, 23.52 5.15 C23.77 6.4, 22.88 7.76, 21.65 8.61 C20.42 9.45, 18.39 9.94, 16.13 10.23 C13.87 10.52, 10.45 10.84, 8.08 10.34 C5.72 9.84, 3.19 8.25, 1.95 7.22 C0.72 6.18, 0.15 5.3, 0.67 4.15 C1.19 3.01, 3.16 0.99, 5.07 0.35 C6.99 -0.3, 10.97 0.31, 12.15 0.26 C13.33 0.22, 12.13 0.13, 12.16 0.08" stroke="#000000" stroke-width="1" fill="none"></path></g><g stroke-linecap="round"><g transform="translate(810.2473446166563 438.41105958900016) rotate(0 10.36507085023652 0.2660040109054478)" fill-rule="evenodd"><path d="M-0.26 -0.55 L16.35 4.6 L20.83 -4.55 L0.98 -0.38" stroke="none" stroke-width="0" fill="#ffff" fill-rule="evenodd"></path><path d="M0 0 C2.61 0.42, 5.86 1.98, 15.39 5.14 M0 0 C3.63 1.18, 7.99 2.17, 15.39 5.14 M15.39 5.14 C16.98 1.62, 19.09 -1.29, 20.73 -4.61 M15.39 5.14 C16.97 2.56, 18.05 -0.11, 20.73 -4.61 M20.73 -4.61 C15.52 -3.51, 12.23 -2.78, 0 0 M20.73 -4.61 C15.15 -3.05, 10.54 -2.25, 0 0 M0 0 C0 0, 0 0, 0 0 M0 0 C0 0, 0 0, 0 0" stroke="#000000" stroke-width="1" fill="none"></path></g></g><mask></mask><g stroke-linecap="round"><g transform="translate(817.8469804582161 412.02750698652414) rotate(0 6.324563250495714 5.801326290816149)" fill-rule="evenodd"><path d="M-0.46 -0.36 L2.34 4.94 L-3.73 7.05 L3.96 8.26 L6.16 12.66 L8.69 7.56 L15.88 5.2 L9.26 4.29 L11.65 -1.41 L4.62 1.41 L0.68 -0.87" stroke="none" stroke-width="0" fill="#ffff" fill-rule="evenodd"></path><path d="M0 0 C0.34 0.96, 0.77 1.88, 1.91 4.22 M0 0 C0.7 1.29, 1.27 2.79, 1.91 4.22 M1.91 4.22 C0.7 4.85, -0.96 5.95, -3.69 7.51 M1.91 4.22 C0.24 5.18, -1.27 6.05, -3.69 7.51 M-3.69 7.51 C-2.14 7.63, -0.93 7.61, 3.13 8.16 M-3.69 7.51 C-1.03 7.7, 1.53 8.01, 3.13 8.16 M3.13 8.16 C4.59 9.99, 5.76 11.4, 6.95 12.62 M3.13 8.16 C4.36 9.54, 5.63 11.06, 6.95 12.62 M6.95 12.62 C7.37 10.81, 7.65 8.32, 7.95 7.38 M6.95 12.62 C7.27 10.61, 7.69 8.94, 7.95 7.38 M7.95 7.38 C10.93 6.56, 13.83 6.19, 16.34 6.17 M7.95 7.38 C11.1 6.81, 14.55 6.32, 16.34 6.17 M16.34 6.17 C15.13 5.72, 13.28 5.34, 9.16 3.95 M16.34 6.17 C14.16 5.52, 11.66 4.75, 9.16 3.95 M9.16 3.95 C9.49 2.98, 10.08 1.78, 11.38 -1.02 M9.16 3.95 C9.72 2.95, 10.03 1.65, 11.38 -1.02 M11.38 -1.02 C9.03 0.15, 6.89 1.31, 5.33 1.75 M11.38 -1.02 C9.16 0.06, 7.25 0.8, 5.33 1.75 M5.33 1.75 C4.08 1.48, 2.62 0.86, 0 0 M5.33 1.75 C4.24 1.36, 3.02 0.96, 0 0 M0 0 C0 0, 0 0, 0 0 M0 0 C0 0, 0 0, 0 0" stroke="#000000" stroke-width="1" fill="none"></path></g></g><mask></mask><g stroke-linecap="round"><g transform="translate(848.76516639299 421.95767697859077) rotate(0 0 5.181569891972401)" fill-rule="evenodd"><path d="M0.45 0.81 L12.96 5.1 L-0.27 10.54 L-12.73 6.12 L0.54 0.14 L-0.63 -0.21" stroke="none" stroke-width="0" fill="#912626" fill-rule="evenodd"></path><path d="M0 0 C2.46 0.8, 5.83 1.9, 12.95 5.18 M0 0 C3.69 1.51, 7.08 2.89, 12.95 5.18 M12.95 5.18 C9.85 6.54, 6.89 7.74, -0.52 10.36 M12.95 5.18 C8.14 7, 3.67 8.35, -0.52 10.36 M-0.52 10.36 C-4.83 8.37, -8.05 6.65, -12.95 5.18 M-0.52 10.36 C-4.71 8.56, -9.26 6.39, -12.95 5.18 M-12.95 5.18 C-9.1 2.95, -3.65 1.16, 0 0 M-12.95 5.18 C-9.21 3.51, -4.97 1.98, 0 0 M0 0 C0 0, 0 0, 0 0 M0 0 C0 0, 0 0, 0 0 M0 0 C0 0, 0 0, 0 0 M0 0 C0 0, 0 0, 0 0" stroke="#000000" stroke-width="1" fill="none"></path></g></g><mask></mask><g stroke-linecap="round"><g transform="translate(847.9839840203346 421.6448965918038) rotate(0 0.1328607664608512 5.181569891972401)"><path d="M0 0 C0.21 2.64, 0.02 6.19, 0.27 10.36 M0 0 C-0.07 2.09, -0.09 4.42, 0.27 10.36" stroke="#000000" stroke-width="1" fill="none"></path></g></g><mask></mask><g transform="translate(765.9787396361622 503.3255938329954) rotate(0 60.09897484591727 9.644855310514458)"><text x="0" y="0" font-family="Virgil, Segoe UI Emoji" font-size="15.431768496823091px" fill="#1e1e1e" text-anchor="start" style="white-space: pre;" direction="ltr" dominant-baseline="text-before-edge">Redis database</text></g><g stroke-linecap="round"><g transform="translate(612.1481656095735 428.6745680750968) rotate(0 73.07094357688095 0.08859298528210502)"><path d="M-0.4 0.37 C23.98 0.49, 122.81 1.03, 147.31 1.02 M1.59 -0.48 C25.82 -0.71, 122.89 -1.02, 146.98 -0.67" stroke="#1e1e1e" stroke-width="2" fill="none"></path></g><g transform="translate(612.1481656095735 428.6745680750968) rotate(0 73.07094357688095 0.08859298528210502)"><path d="M123.45 7.79 C133.18 6.54, 143.08 2.14, 146.98 -0.67 M123.45 7.79 C129.9 4.94, 137.59 2.6, 146.98 -0.67" stroke="#1e1e1e" stroke-width="2" fill="none"></path></g><g transform="translate(612.1481656095735 428.6745680750968) rotate(0 73.07094357688095 0.08859298528210502)"><path d="M123.53 -9.32 C133.26 -3.93, 143.14 -1.7, 146.98 -0.67 M123.53 -9.32 C129.84 -6.91, 137.52 -3.99, 146.98 -0.67" stroke="#1e1e1e" stroke-width="2" fill="none"></path></g></g><mask></mask><g stroke-linecap="round"><g transform="translate(754.6972706612386 460.8585644809657) rotate(0 -72.78093994472846 1.10443797632405)"><path d="M1.17 0.84 C-22.94 1.16, -120.49 2.18, -145.06 2.3 M0.33 0.23 C-23.86 0.73, -121.73 3.51, -145.75 3.88" stroke="#1e1e1e" stroke-width="2" fill="none"></path></g><g transform="translate(754.6972706612386 460.8585644809657) rotate(0 -72.78093994472846 1.10443797632405)"><path d="M-122.46 -5.2 C-127.24 -1.72, -134.7 -1.31, -145.75 3.88 M-122.46 -5.2 C-128.56 -3.21, -134.37 -1.5, -145.75 3.88" stroke="#1e1e1e" stroke-width="2" fill="none"></path></g><g transform="translate(754.6972706612386 460.8585644809657) rotate(0 -72.78093994472846 1.10443797632405)"><path d="M-122.07 11.89 C-127.01 10.82, -134.58 6.67, -145.75 3.88 M-122.07 11.89 C-128.12 9.73, -134.02 7.29, -145.75 3.88" stroke="#1e1e1e" stroke-width="2" fill="none"></path></g></g><mask></mask><g stroke-linecap="round"><g transform="translate(532.2769629022695 117.6937126925254) rotate(0 -14.730064978951418 52.100741766440976)"><path d="M-0.84 -0.72 C-2.99 -1.28, -9.48 -3.14, -12.61 -3.19 C-15.74 -3.23, -16.93 -1.53, -19.63 -0.99 C-22.32 -0.46, -23.3 0.3, -28.77 0.03 C-34.24 -0.24, -45.55 -3.81, -52.42 -2.63 C-59.29 -1.46, -66.78 0.78, -69.98 7.07 C-73.18 13.37, -73.31 25.91, -71.6 35.12 C-69.89 44.34, -63.79 55.32, -59.72 62.35 C-55.65 69.38, -51.49 77.25, -47.18 77.31 C-42.87 77.37, -37.36 65.06, -33.86 62.73 C-30.37 60.4, -28.19 62.9, -26.21 63.31 C-24.23 63.73, -22.03 64.51, -21.99 65.23 C-21.95 65.94, -24.57 66.77, -25.96 67.61 C-27.36 68.44, -28.45 69.24, -30.33 70.25 C-32.21 71.26, -37.9 72.69, -37.23 73.64 C-36.56 74.6, -29.19 75.62, -26.31 75.99 C-23.42 76.35, -21.7 75.66, -19.92 75.83 C-18.14 76, -17.07 73.53, -15.64 77 C-14.21 80.48, -13.16 91.26, -11.35 96.66 C-9.54 102.05, -8.45 107.91, -4.77 109.38 C-1.08 110.85, 7.28 107.91, 10.74 105.46 C14.21 103.01, 15 99.27, 16.04 94.67 C17.07 90.08, 16.78 81.96, 16.96 77.9 C17.14 73.83, 15.09 71.23, 17.12 70.27 C19.16 69.31, 25.6 73.17, 29.16 72.15 C32.73 71.12, 38.37 65.5, 38.51 64.13 C38.64 62.76, 32.56 64.81, 29.96 63.92 C27.37 63.02, 22.56 62.21, 22.95 58.79 C23.35 55.36, 29.4 49.16, 32.32 43.37 C35.24 37.58, 38.86 30.56, 40.48 24.05 C42.09 17.53, 44.19 8.79, 42 4.26 C39.81 -0.28, 32.49 -1.67, 27.34 -3.16 C22.2 -4.65, 15.68 -5.41, 11.14 -4.68 C6.61 -3.96, 2 0.26, 0.13 1.18 M0.92 1.51 C-0.91 1.17, -7 -0.78, -10.5 -1.55 C-14.01 -2.32, -17.08 -3.49, -20.13 -3.09 C-23.17 -2.69, -23.25 1.21, -28.78 0.84 C-34.31 0.47, -46.17 -6.73, -53.32 -5.3 C-60.47 -3.87, -68.64 2.87, -71.67 9.4 C-74.7 15.92, -73.36 24.57, -71.5 33.86 C-69.63 43.15, -64.82 57.61, -60.49 65.15 C-56.17 72.69, -50.01 79.53, -45.53 79.08 C-41.05 78.63, -36.83 65.45, -33.63 62.45 C-30.44 59.44, -28.12 60.63, -26.34 61.05 C-24.57 61.47, -23.09 63.49, -23 64.98 C-22.9 66.47, -24.4 69.2, -25.75 69.99 C-27.1 70.78, -29.23 68.71, -31.09 69.74 C-32.95 70.76, -37.33 74.91, -36.92 76.14 C-36.5 77.38, -31.19 77.06, -28.6 77.15 C-26 77.24, -23.85 76.64, -21.34 76.68 C-18.84 76.73, -15.06 74.05, -13.56 77.43 C-12.05 80.81, -13.92 91.89, -12.32 96.98 C-10.72 102.08, -7.64 106.73, -3.95 108 C-0.26 109.28, 6.38 107, 9.82 104.62 C13.26 102.25, 15.41 98.31, 16.7 93.75 C17.99 89.2, 17.28 80.83, 17.56 77.29 C17.83 73.75, 16.22 73.83, 18.36 72.51 C20.5 71.18, 26.85 70.78, 30.39 69.32 C33.94 67.86, 39.98 64.71, 39.63 63.77 C39.28 62.82, 30.83 64.18, 28.28 63.65 C25.73 63.12, 24.16 63.78, 24.35 60.59 C24.53 57.39, 26.96 50.28, 29.38 44.49 C31.81 38.69, 36.83 32.24, 38.91 25.81 C40.98 19.38, 43.83 11.03, 41.85 5.92 C39.87 0.8, 31.91 -3.01, 27.01 -4.88 C22.1 -6.76, 17.2 -6.03, 12.41 -5.33 C7.62 -4.63, 0.07 -1.67, -1.74 -0.7" stroke="#000000" stroke-width="1" fill="none"></path></g></g><mask></mask><g stroke-linecap="round"><g transform="translate(506.7215466045154 118.46463158744902) rotate(0 0.06122221520766402 36.85577355498221)"><path d="M-1.15 0.19 C-2.2 1.71, -5.35 4.79, -7.15 8.37 C-8.95 11.95, -11.68 16.42, -11.93 21.67 C-12.19 26.91, -8.86 35.5, -8.7 39.84 C-8.53 44.19, -10.61 45.04, -10.94 47.74 C-11.26 50.44, -11.91 54.2, -10.65 56.05 C-9.38 57.9, -5.64 57.83, -3.38 58.83 C-1.11 59.83, 0.9 60.93, 2.97 62.02 C5.03 63.12, 7.64 63.88, 9.02 65.4 C10.4 66.91, 11.15 69.69, 11.25 71.13 C11.36 72.58, 10.05 73.77, 9.65 74.06 M0.45 -0.75 C-0.64 0.46, -5.6 2.59, -7.83 6.5 C-10.07 10.41, -12.34 17.46, -12.96 22.69 C-13.57 27.92, -11.72 33.7, -11.53 37.89 C-11.35 42.08, -12.14 44.97, -11.85 47.83 C-11.56 50.7, -11.34 52.96, -9.78 55.09 C-8.21 57.22, -4.99 59.61, -2.48 60.63 C0.03 61.64, 3.11 60.58, 5.26 61.17 C7.42 61.76, 9.42 62.53, 10.47 64.18 C11.52 65.83, 11.58 69.25, 11.56 71.09 C11.55 72.93, 11.06 75.08, 10.37 75.22" stroke="#000000" stroke-width="1" fill="none"></path></g></g><mask></mask><g stroke-linecap="round"><g transform="translate(531.8467770423222 117.70322758284718) rotate(0 11.203665382992966 29.478496622465073)"><path d="M0.5 0.48 C1.66 0.56, 3.03 -0.85, 5.76 0.73 C8.49 2.31, 14.31 6.11, 16.89 9.96 C19.48 13.82, 21.07 18.95, 21.27 23.86 C21.46 28.78, 17.8 35.15, 18.07 39.46 C18.34 43.77, 22.7 46.62, 22.89 49.71 C23.08 52.8, 19.87 56.39, 19.19 57.98 M-0.69 -0.32 C0.36 -0.09, 1.66 0.55, 4.56 1.97 C7.45 3.4, 14.39 4.44, 16.7 8.23 C19.01 12.01, 17.91 19.38, 18.41 24.67 C18.91 29.95, 19.3 35.41, 19.71 39.93 C20.13 44.45, 20.93 48.5, 20.89 51.81 C20.86 55.12, 19.49 58.57, 19.5 59.79" stroke="#000000" stroke-width="1" fill="none"></path></g></g><mask></mask><g stroke-linecap="round"><g transform="translate(548.9590636761188 190.28417034814007) rotate(0 -1.7876886840622603 -25.30926376682673)"><path d="M-0.49 -0.56 C-0.32 -1.57, 0.7 -3.97, 1.48 -5.57 C2.25 -7.17, 3.5 -9.26, 4.18 -10.15 C4.86 -11.04, 5.76 -10.11, 5.55 -10.9 C5.34 -11.7, 4.11 -13.26, 2.92 -14.94 C1.72 -16.62, -0.2 -18.81, -1.62 -20.99 C-3.05 -23.18, -4.07 -24.69, -5.64 -28.04 C-7.21 -31.39, -10.81 -37.46, -11.03 -41.09 C-11.26 -44.71, -9.27 -48.06, -7.01 -49.8 C-4.74 -51.53, 0.97 -51.24, 2.55 -51.48 M1.46 1.76 C1.52 0.41, 0.69 -5.28, 1.11 -7.09 C1.52 -8.91, 3.28 -8.7, 3.97 -9.13 C4.66 -9.57, 5.64 -8.73, 5.26 -9.72 C4.88 -10.71, 2.67 -13.54, 1.7 -15.07 C0.73 -16.6, 0.66 -16.53, -0.55 -18.88 C-1.76 -21.24, -4.15 -25.53, -5.53 -29.22 C-6.92 -32.91, -8.4 -37.39, -8.86 -41.02 C-9.31 -44.65, -10.3 -49.1, -8.28 -51 C-6.25 -52.89, 1.47 -52.46, 3.3 -52.39" stroke="#000000" stroke-width="1" fill="none"></path></g></g><mask></mask><g stroke-linecap="round"><g transform="translate(495.6426030734512 146.71731302177824) rotate(0 8.907832312707512 15.060664941072503)"><path d="M1.1 1.15 C2.36 0.64, 5.15 -2.82, 7.06 -3.63 C8.97 -4.44, 10.69 -4.54, 12.56 -3.7 C14.43 -2.87, 17.53 -1.5, 18.3 1.4 C19.07 4.31, 17.85 9.92, 17.17 13.72 C16.49 17.52, 14.93 20.69, 14.22 24.19 C13.51 27.7, 12.85 33.08, 12.9 34.77 M0.22 0.71 C1.45 0.4, 4.22 -1.88, 6.67 -2.39 C9.12 -2.89, 12.89 -3.04, 14.91 -2.31 C16.93 -1.58, 18.11 -0.66, 18.8 1.99 C19.48 4.64, 19.64 10.04, 19.02 13.6 C18.41 17.15, 16.08 19.95, 15.09 23.32 C14.11 26.69, 13.29 32.03, 13.09 33.83" stroke="#000000" stroke-width="1" fill="none"></path></g></g><mask></mask><g stroke-linecap="round"><g transform="translate(544.7591566819884 142.05068042231864) rotate(358.18735542929625 -0.0409108836647647 1.8121406600407823)"><path d="M0.31 -0.17 C-0.28 0.04, -3.25 1, -3.25 1.59 C-3.25 2.17, -0.68 3.54, 0.31 3.33 C1.29 3.13, 2.77 0.89, 2.67 0.35 C2.57 -0.19, 0.19 0.11, -0.3 0.09 M0.05 0.51 C-0.47 0.93, -2.63 1.55, -2.61 2.06 C-2.59 2.57, -0.72 3.83, 0.15 3.57 C1.03 3.31, 2.64 1.07, 2.65 0.52 C2.65 -0.03, 0.62 0.34, 0.18 0.26" stroke="#000000" stroke-width="1" fill="none"></path></g></g><mask></mask><g stroke-linecap="round"><g transform="translate(506.6974839498501 145.2200149277062) rotate(14.802012269513854 0.06719306593427632 1.7040178080228543)"><path d="M-0.31 0.05 C-0.84 0.27, -2.83 0.66, -2.88 1.17 C-2.92 1.68, -1.35 2.82, -0.55 3.12 C0.24 3.41, 1.33 3.4, 1.91 2.94 C2.48 2.48, 3.18 0.82, 2.89 0.34 C2.61 -0.13, 0.71 0.2, 0.23 0.1 M0.18 -0.24 C-0.41 0.03, -2.9 0.87, -3.08 1.47 C-3.26 2.07, -1.69 3.05, -0.87 3.36 C-0.06 3.67, 1.11 3.77, 1.83 3.31 C2.54 2.85, 3.76 1.15, 3.41 0.58 C3.05 0, 0.22 -0.1, -0.32 -0.15" stroke="#000000" stroke-width="1" fill="none"></path></g></g><mask></mask><g transform="translate(441.4022402555204 252.32449302935038) rotate(0 76.67635597150576 9.232783421932538)"><text x="0" y="0" font-family="Virgil, Segoe UI Emoji" font-size="14.772453475092075px" fill="#1e1e1e" text-anchor="start" style="white-space: pre;" direction="ltr" dominant-baseline="text-before-edge">PosgreSQL database</text></g><g stroke-linecap="round" transform="translate(1022.1768409811277 346.2762240455263) rotate(0 63.571548461914006 76.06839589142567)"><path d="M31.79 0 C46.84 0.73, 60.82 -1.08, 95.36 0 M31.79 0 C53.25 -0.41, 75.01 0.83, 95.36 0 M95.36 0 C116.94 -1.88, 125.39 11.07, 127.14 31.79 M95.36 0 C114.61 0.67, 126.1 9.18, 127.14 31.79 M127.14 31.79 C126.87 49.31, 126.07 69.85, 127.14 120.35 M127.14 31.79 C126.98 65.03, 128.01 98.15, 127.14 120.35 M127.14 120.35 C126.94 142.8, 114.58 153.76, 95.36 152.14 M127.14 120.35 C126.55 141.61, 116.09 152.16, 95.36 152.14 M95.36 152.14 C81.44 151.24, 68.91 154.28, 31.79 152.14 M95.36 152.14 C70.22 152.12, 44.94 152.09, 31.79 152.14 M31.79 152.14 C12.25 153.96, 0.55 142.02, 0 120.35 M31.79 152.14 C11.06 153.08, -2.25 141.53, 0 120.35 M0 120.35 C-1.61 102.35, -0.43 83.64, 0 31.79 M0 120.35 C-0.03 98.69, -1.53 78.05, 0 31.79 M0 31.79 C1.71 9.55, 10.31 -0.62, 31.79 0 M0 31.79 C-0.06 8.95, 9.55 -0.07, 31.79 0" stroke="#1e1e1e" stroke-width="2" fill="none"></path></g><g transform="translate(1055.9709252464331 408.7401387404624) rotate(0 29.777464196608605 13.604481196489559)"><text x="0" y="0" font-family="Virgil, Segoe UI Emoji" font-size="21.767169914383302px" fill="#1e1e1e" text-anchor="start" style="white-space: pre;" direction="ltr" dominant-baseline="text-before-edge">Agent</text></g><g stroke-linecap="round"><g transform="translate(886.8102695549404 433.4230123490121) rotate(0 58.1874468891333 -0.155465182892641)"><path d="M0.33 -0.64 C19.69 -0.7, 97.01 0.69, 116.25 0.79 M-0.96 1.64 C18.22 1.78, 95.96 -0.73, 115.23 -0.76" stroke="#1e1e1e" stroke-width="2" fill="none"></path></g><g transform="translate(886.8102695549404 433.4230123490121) rotate(0 58.1874468891333 -0.155465182892641)"><path d="M91.9 8.23 C97.92 5.19, 107.98 1.61, 115.23 -0.76 M91.9 8.23 C99.86 6.13, 107.01 2.6, 115.23 -0.76" stroke="#1e1e1e" stroke-width="2" fill="none"></path></g><g transform="translate(886.8102695549404 433.4230123490121) rotate(0 58.1874468891333 -0.155465182892641)"><path d="M91.58 -8.87 C97.86 -6.66, 108.02 -4.98, 115.23 -0.76 M91.58 -8.87 C99.58 -5.44, 106.84 -3.45, 115.23 -0.76" stroke="#1e1e1e" stroke-width="2" fill="none"></path></g></g><mask></mask><g stroke-linecap="round"><g transform="translate(1001.0209090631416 465.3210714384644) rotate(0 -56.02760618692662 1.1892859267753693)"><path d="M-0.13 1.1 C-18.96 1.65, -93.94 2.55, -112.68 2.65 M-1.65 0.63 C-20.12 0.85, -91.64 0.33, -110.29 0.68" stroke="#1e1e1e" stroke-width="2" fill="none"></path></g><g transform="translate(1001.0209090631416 465.3210714384644) rotate(0 -56.02760618692662 1.1892859267753693)"><path d="M-86.83 -7.97 C-92.73 -6.2, -101.78 -3.11, -110.29 0.68 M-86.83 -7.97 C-92.54 -5.64, -98.02 -2.87, -110.29 0.68" stroke="#1e1e1e" stroke-width="2" fill="none"></path></g><g transform="translate(1001.0209090631416 465.3210714384644) rotate(0 -56.02760618692662 1.1892859267753693)"><path d="M-86.76 9.13 C-92.59 5.3, -101.66 2.79, -110.29 0.68 M-86.76 9.13 C-92.55 7.27, -98.05 5.85, -110.29 0.68" stroke="#1e1e1e" stroke-width="2" fill="none"></path></g></g><mask></mask><g stroke-linecap="round"><g transform="translate(1009.1012964119003 378.46265359101295) rotate(0 -205.63496483696827 0.2237332434171151)"><path d="M-0.73 0.22 C-69.54 0.32, -343.87 -0.25, -412.25 -0.31 M1.08 -0.7 C-67.4 -0.39, -341.27 0.56, -410.05 0.82" stroke="#1e1e1e" stroke-width="2" fill="none"></path></g><g transform="translate(1009.1012964119003 378.46265359101295) rotate(0 -205.63496483696827 0.2237332434171151)"><path d="M-386.59 -7.81 C-394.43 -6.59, -404.22 -1.48, -410.05 0.82 M-386.59 -7.81 C-392.89 -5.83, -398.92 -4.23, -410.05 0.82" stroke="#1e1e1e" stroke-width="2" fill="none"></path></g><g transform="translate(1009.1012964119003 378.46265359101295) rotate(0 -205.63496483696827 0.2237332434171151)"><path d="M-386.53 9.29 C-394.26 4.57, -404.07 3.74, -410.05 0.82 M-386.53 9.29 C-392.87 7, -398.91 4.33, -410.05 0.82" stroke="#1e1e1e" stroke-width="2" fill="none"></path></g></g><mask></mask><g transform="translate(714.1551800090765 351.19694615924163) rotate(0 97.29991149902344 12.5)"><text x="0" y="0" font-family="Virgil, Segoe UI Emoji" font-size="20px" fill="#1e1e1e" text-anchor="start" style="white-space: pre;" direction="ltr" dominant-baseline="text-before-edge">hearthbeat request</text></g><g stroke-linecap="round" transform="translate(1282.7021608223013 260.403239053393) rotate(0 101.78577423095703 29.285717010498047)"><path d="M14.64 0 C67.68 -0.78, 125.07 -1.41, 188.93 0 M14.64 0 C57.99 1.23, 101.31 1.25, 188.93 0 M188.93 0 C198.32 -1.85, 203.91 6.15, 203.57 14.64 M188.93 0 C198.88 0.02, 201.84 7.07, 203.57 14.64 M203.57 14.64 C205.26 25.18, 204.29 36.69, 203.57 43.93 M203.57 14.64 C203.38 21.55, 203.91 29.23, 203.57 43.93 M203.57 43.93 C201.93 52.88, 197.66 57.76, 188.93 58.57 M203.57 43.93 C204.47 54.45, 200.43 59.93, 188.93 58.57 M188.93 58.57 C141.71 59.12, 96.77 58.72, 14.64 58.57 M188.93 58.57 C120.71 58.4, 52.94 59.87, 14.64 58.57 M14.64 58.57 C3.72 58.54, 0.48 53.94, 0 43.93 M14.64 58.57 C6.9 59.65, -0.83 51.57, 0 43.93 M0 43.93 C-1.68 33.71, -1.26 20.68, 0 14.64 M0 43.93 C0.18 34.61, -0.96 24.26, 0 14.64 M0 14.64 C1.93 3.99, 3.46 1.34, 14.64 0 M0 14.64 C2.14 3.56, 7 0.84, 14.64 0" stroke="#1e1e1e" stroke-width="2" fill="none"></path></g><g transform="translate(1292.841244684606 266.83186225285584) rotate(0 91.64669036865234 22.857093811035185)"><text x="91.64669036865234" y="0" font-family="Virgil, Segoe UI Emoji" font-size="18.28567504882815px" fill="#1e1e1e" text-anchor="middle" style="white-space: pre;" direction="ltr" dominant-baseline="text-before-edge">execution operation </text><text x="91.64669036865234" y="22.85709381103519" font-family="Virgil, Segoe UI Emoji" font-size="18.28567504882815px" fill="#1e1e1e" text-anchor="middle" style="white-space: pre;" direction="ltr" dominant-baseline="text-before-edge">goroutine</text></g><g stroke-linecap="round" transform="translate(1282.7021608223013 349.96683132837677) rotate(0 101.78577423095703 29.285717010498047)"><path d="M14.64 0 C61.22 -3.16, 103.16 -1.68, 188.93 0 M14.64 0 C72.62 -0.82, 128.04 0.51, 188.93 0 M188.93 0 C199.27 -1.97, 205.16 6.09, 203.57 14.64 M188.93 0 C197.68 1.89, 205.34 3.21, 203.57 14.64 M203.57 14.64 C201.51 25.65, 201.82 33.6, 203.57 43.93 M203.57 14.64 C203.84 24.23, 204.07 33.7, 203.57 43.93 M203.57 43.93 C202.53 54.62, 198.98 59.7, 188.93 58.57 M203.57 43.93 C201.42 52.23, 196.66 59.69, 188.93 58.57 M188.93 58.57 C118.1 57.68, 50.37 56.03, 14.64 58.57 M188.93 58.57 C133.21 59.8, 78.47 58.6, 14.64 58.57 M14.64 58.57 C6.65 58.61, -0.07 52.35, 0 43.93 M14.64 58.57 C3.31 57.74, -0.47 53.18, 0 43.93 M0 43.93 C0.75 32.95, -0.81 19.95, 0 14.64 M0 43.93 C-0.66 36.71, 0.01 30.1, 0 14.64 M0 14.64 C-0.1 5.27, 3.71 -0.42, 14.64 0 M0 14.64 C0.67 3.24, 4.14 2.24, 14.64 0" stroke="#1e1e1e" stroke-width="2" fill="none"></path></g><g transform="translate(1292.841244684606 356.3954545278396) rotate(0 91.64669036865234 22.857093811035185)"><text x="91.64669036865234" y="0" font-family="Virgil, Segoe UI Emoji" font-size="18.28567504882815px" fill="#1e1e1e" text-anchor="middle" style="white-space: pre;" direction="ltr" dominant-baseline="text-before-edge">execution operation </text><text x="91.64669036865234" y="22.85709381103519" font-family="Virgil, Segoe UI Emoji" font-size="18.28567504882815px" fill="#1e1e1e" text-anchor="middle" style="white-space: pre;" direction="ltr" dominant-baseline="text-before-edge">goroutine</text></g><g stroke-linecap="round" transform="translate(1282.7021608223013 472.1491772485157) rotate(0 101.78577423095703 29.285717010498047)"><path d="M14.64 0 C58.42 0.53, 103.92 -0.88, 188.93 0 M14.64 0 C57.25 0.15, 98.96 -0.46, 188.93 0 M188.93 0 C197.22 1.9, 205.47 6.22, 203.57 14.64 M188.93 0 C197.42 0.71, 203.8 2.89, 203.57 14.64 M203.57 14.64 C203.66 23.92, 203.58 37.3, 203.57 43.93 M203.57 14.64 C203.05 26.21, 202.58 36.7, 203.57 43.93 M203.57 43.93 C202.88 54.87, 200.49 58.18, 188.93 58.57 M203.57 43.93 C203.44 54.46, 200.74 56.82, 188.93 58.57 M188.93 58.57 C138.74 57.06, 87.49 57.82, 14.64 58.57 M188.93 58.57 C147 57.16, 105.26 57.49, 14.64 58.57 M14.64 58.57 C4.31 60.1, 1.06 54.32, 0 43.93 M14.64 58.57 C6.25 57.74, 0 53.36, 0 43.93 M0 43.93 C-0.86 37.77, 0.07 27.3, 0 14.64 M0 43.93 C-0.42 36.4, -0.88 29.47, 0 14.64 M0 14.64 C0.14 3.18, 4.03 -0.1, 14.64 0 M0 14.64 C1.51 5.16, 3.94 0.32, 14.64 0" stroke="#1e1e1e" stroke-width="2" fill="none"></path></g><g transform="translate(1292.841244684606 478.5778004479785) rotate(0 91.64669036865234 22.857093811035185)"><text x="91.64669036865234" y="0" font-family="Virgil, Segoe UI Emoji" font-size="18.28567504882815px" fill="#1e1e1e" text-anchor="middle" style="white-space: pre;" direction="ltr" dominant-baseline="text-before-edge">execution operation </text><text x="91.64669036865234" y="22.85709381103519" font-family="Virgil, Segoe UI Emoji" font-size="18.28567504882815px" fill="#1e1e1e" text-anchor="middle" style="white-space: pre;" direction="ltr" dominant-baseline="text-before-edge">goroutine</text></g><g stroke-linecap="round"><g transform="translate(1349.8062293848138 444.76826150076727) rotate(0 35.23813883463549 -1.26983642578125)"><path d="M-0.77 -1.02 C11.09 -1.36, 58.33 -1.32, 70.14 -1.5" stroke="#1e1e1e" stroke-width="2.5" fill="none" stroke-dasharray="8 10"></path></g></g><mask></mask><g stroke-linecap="round"><g transform="translate(1160.5497369636582 395.4955158089012) rotate(0 58.57138739691857 -57.36360323219793)"><path d="M-0.71 1.11 C18.6 -17.91, 96.16 -94.85, 115.98 -114.03 M1.12 0.65 C20.76 -18.72, 98.6 -96.36, 118.08 -115.79" stroke="#1e1e1e" stroke-width="2" fill="none"></path></g><g transform="translate(1160.5497369636582 395.4955158089012) rotate(0 58.57138739691857 -57.36360323219793)"><path d="M107.49 -93.15 C112.64 -102.11, 115.27 -105.45, 118.08 -115.79 M107.49 -93.15 C112.31 -101.42, 116.3 -110.27, 118.08 -115.79" stroke="#1e1e1e" stroke-width="2" fill="none"></path></g><g transform="translate(1160.5497369636582 395.4955158089012) rotate(0 58.57138739691857 -57.36360323219793)"><path d="M95.41 -105.26 C104.35 -110.36, 110.76 -109.9, 118.08 -115.79 M95.41 -105.26 C104.49 -109.28, 112.84 -113.77, 118.08 -115.79" stroke="#1e1e1e" stroke-width="2" fill="none"></path></g></g><mask></mask><g stroke-linecap="round"><g transform="translate(1165.629014849943 417.7437261893525) rotate(0 54.444359673394274 -20.85354138331411)"><path d="M0.47 -1.08 C18.5 -8.09, 89.7 -35.78, 107.76 -42.74 M-0.75 0.96 C17.67 -5.86, 91.75 -34.56, 109.88 -41.75" stroke="#1e1e1e" stroke-width="2" fill="none"></path></g><g transform="translate(1165.629014849943 417.7437261893525) rotate(0 54.444359673394274 -20.85354138331411)"><path d="M91.12 -25.23 C94.38 -31.56, 99.43 -34.14, 109.88 -41.75 M91.12 -25.23 C94.04 -29.39, 99.72 -31.13, 109.88 -41.75" stroke="#1e1e1e" stroke-width="2" fill="none"></path></g><g transform="translate(1165.629014849943 417.7437261893525) rotate(0 54.444359673394274 -20.85354138331411)"><path d="M84.89 -41.16 C89.71 -43.29, 96.41 -41.65, 109.88 -41.75 M84.89 -41.16 C89.04 -42.02, 95.98 -40.54, 109.88 -41.75" stroke="#1e1e1e" stroke-width="2" fill="none"></path></g></g><mask></mask><g stroke-linecap="round"><g transform="translate(1164.9939779575818 437.0403544818908) rotate(0 54.7618781195747 34.46567375039044)"><path d="M-0.19 0.94 C17.87 12.48, 91.2 57.42, 109.41 68.88 M-1.76 0.39 C16.05 12.16, 90.11 59.16, 108.4 70.38" stroke="#1e1e1e" stroke-width="2" fill="none"></path></g><g transform="translate(1164.9939779575818 437.0403544818908) rotate(0 54.7618781195747 34.46567375039044)"><path d="M83.95 65.16 C94.96 67.03, 102.76 68.4, 108.4 70.38 M83.95 65.16 C93.53 68.16, 101.66 69.86, 108.4 70.38" stroke="#1e1e1e" stroke-width="2" fill="none"></path></g><g transform="translate(1164.9939779575818 437.0403544818908) rotate(0 54.7618781195747 34.46567375039044)"><path d="M93.03 50.67 C100.49 58.13, 104.77 65.11, 108.4 70.38 M93.03 50.67 C99.34 58.83, 104.19 65.78, 108.4 70.38" stroke="#1e1e1e" stroke-width="2" fill="none"></path></g></g><mask></mask></svg>